<svg width="17" height="16" viewBox="0 0 17 16" fill="none" xmlns="http://www.w3.org/2000/svg">
<g clip-path="url(#clip0_6303_7712)">
<path d="M13.4067 10.2533C12.5867 10.2533 11.7933 10.12 11.0533 9.88C10.82 9.8 10.56 9.86 10.38 10.04L9.33332 11.3533C7.44665 10.4533 5.67998 8.75333 4.73998 6.8L6.03998 5.69333C6.21998 5.50667 6.27332 5.24667 6.19998 5.01333C5.95332 4.27333 5.82665 3.48 5.82665 2.66C5.82665 2.3 5.52665 2 5.16665 2H2.85998C2.49998 2 2.06665 2.16 2.06665 2.66C2.06665 8.85333 7.21998 14 13.4067 14C13.88 14 14.0667 13.58 14.0667 13.2133V10.9133C14.0667 10.5533 13.7667 10.2533 13.4067 10.2533Z" fill="#265098"/>
</g>
<defs>
<clipPath id="clip0_6303_7712">
<rect width="16" height="16" fill="white" transform="translate(0.0666504)"/>
</clipPath>
</defs>
</svg>
