<svg width="72" height="72" viewBox="0 0 72 72" fill="none" xmlns="http://www.w3.org/2000/svg">
<rect width="72" height="72" rx="36" fill="#178BF1"/>
<path d="M32.2199 48.42L20.7448 36.945L24.5248 33.165L32.2199 40.86L67.095 6.5022L70.875 10.2822L32.2199 48.42Z" fill="white"/>
<path d="M35.9999 63.0001C32.2649 63.0001 28.7548 62.2913 25.4698 60.8738C22.1848 59.4563 19.3273 57.5326 16.8973 55.1025C14.4673 52.6725 12.5435 49.815 11.126 46.53C9.70851 43.245 8.99976 39.735 8.99976 36C8.99976 32.265 9.70851 28.755 11.126 25.4699C12.5435 22.1849 14.4673 19.3274 16.8973 16.8974C19.3273 14.4674 22.1848 12.5436 25.4698 11.1261C28.7548 9.70863 32.2649 8.99988 35.9999 8.99988C38.9249 8.99988 41.6924 9.42738 44.3024 10.2824C46.9124 11.1374 49.3199 12.3299 51.5249 13.8599L47.6099 17.8424C45.8999 16.7624 44.0774 15.9187 42.1424 15.3112C40.2074 14.7036 38.1599 14.3999 35.9999 14.3999C30.0149 14.3999 24.9186 16.5037 20.7111 20.7112C16.5035 24.9187 14.3998 30.015 14.3998 36C14.3998 41.985 16.5035 47.0813 20.7111 51.2888C24.9186 55.4963 30.0149 57.6001 35.9999 57.6001C41.9849 57.6001 47.0812 55.4963 51.2887 51.2888C55.4962 47.0813 57.6 41.985 57.6 36C57.6 35.19 57.555 34.38 57.465 33.57C57.375 32.76 57.24 31.9725 57.06 31.2075L61.4475 26.8199C61.9425 28.2599 62.325 29.745 62.595 31.275C62.865 32.805 63 34.38 63 36C63 39.735 62.2912 43.245 60.8737 46.53C59.4562 49.815 57.5325 52.6725 55.1025 55.1025C52.6725 57.5326 49.8149 59.4563 46.5299 60.8738C43.2449 62.2913 39.7349 63.0001 35.9999 63.0001Z" fill="white" fill-opacity="0.5"/>
</svg>
