<svg width="16" height="16" viewBox="0 0 16 16" fill="none" xmlns="http://www.w3.org/2000/svg">
<path d="M7.62506 13.532V12.5993H12.4026C12.456 12.5993 12.5036 12.5822 12.5452 12.548C12.5869 12.5139 12.6077 12.4691 12.6077 12.4135V7.81802C12.6077 6.56502 12.1562 5.50868 11.2532 4.64902C10.3502 3.78946 9.26584 3.35968 8.00006 3.35968C6.73084 3.35968 5.64472 3.78946 4.74172 4.64902C3.83872 5.50868 3.38722 6.56502 3.38722 7.81802V11.6494H2.92256C2.61522 11.6494 2.35156 11.5425 2.13156 11.3289C1.91145 11.1152 1.80139 10.8547 1.80139 10.5475V9.27435C1.80139 9.06157 1.86295 8.87024 1.98606 8.70035C2.10906 8.53046 2.26522 8.38974 2.45456 8.27818L2.48539 7.44035C2.54128 6.73479 2.72617 6.07885 3.04006 5.47252C3.35395 4.86607 3.75822 4.33946 4.25289 3.89268C4.74756 3.44591 5.31672 3.09674 5.96039 2.84518C6.60395 2.59374 7.28384 2.46802 8.00006 2.46802C8.71417 2.46802 9.39184 2.59374 10.0331 2.84518C10.6743 3.09674 11.2426 3.44418 11.7379 3.88752C12.2332 4.33085 12.6369 4.85435 12.9491 5.45802C13.2613 6.06168 13.4482 6.71735 13.5097 7.42502L13.5404 8.25968C13.7255 8.34557 13.8815 8.46957 14.0084 8.63168C14.1353 8.79391 14.1987 8.97863 14.1987 9.18585V10.6424C14.1987 10.8496 14.1353 11.0343 14.0084 11.1965C13.8815 11.3586 13.7255 11.4826 13.5404 11.5685V12.4135C13.5404 12.7237 13.4294 12.9877 13.2074 13.2055C12.9854 13.4232 12.7171 13.532 12.4026 13.532H7.62506ZM6.16356 9.13085C6.01056 9.13085 5.87934 9.07824 5.76989 8.97302C5.66056 8.86791 5.60589 8.73996 5.60589 8.58918C5.60589 8.43829 5.66056 8.30868 5.76989 8.20035C5.87934 8.09202 6.01056 8.03785 6.16356 8.03785C6.31445 8.03785 6.44456 8.09202 6.55389 8.20035C6.66334 8.30868 6.71806 8.43829 6.71806 8.58918C6.71806 8.73996 6.66334 8.86791 6.55389 8.97302C6.44456 9.07824 6.31445 9.13085 6.16356 9.13085ZM9.83972 9.13085C9.68672 9.13085 9.55556 9.07824 9.44622 8.97302C9.33678 8.86791 9.28206 8.73996 9.28206 8.58918C9.28206 8.43829 9.33678 8.30868 9.44622 8.20035C9.55556 8.09202 9.68672 8.03785 9.83972 8.03785C9.99061 8.03785 10.1208 8.09202 10.2302 8.20035C10.3396 8.30868 10.3942 8.43829 10.3942 8.58918C10.3942 8.73996 10.3396 8.86791 10.2302 8.97302C10.1208 9.07824 9.99061 9.13085 9.83972 9.13085ZM4.33656 8.09802C4.28656 7.04591 4.62395 6.14552 5.34872 5.39685C6.0735 4.64807 6.96667 4.27368 8.02822 4.27368C8.924 4.27368 9.71706 4.55085 10.4074 5.10518C11.0978 5.65941 11.5204 6.37496 11.6751 7.25185C10.7459 7.23741 9.88578 6.99596 9.09456 6.52752C8.30334 6.05918 7.69895 5.41052 7.28139 4.58152C7.11772 5.38696 6.77511 6.09774 6.25356 6.71385C5.732 7.32985 5.093 7.79124 4.33656 8.09802Z" fill="white"/>
</svg>
