<svg width="16" height="16" viewBox="0 0 16 16" fill="none" xmlns="http://www.w3.org/2000/svg">
<path d="M7.53538 14.1987V11.5154C7.53538 10.9073 7.44605 10.4382 7.26739 10.1081C7.08872 9.77795 6.83805 9.468 6.51538 9.17822L7.17955 8.51422C7.31588 8.63945 7.45616 8.78856 7.60038 8.96156C7.74461 9.13467 7.87783 9.32272 8.00005 9.52572C8.15172 9.26672 8.32233 9.03534 8.51188 8.83156C8.70144 8.62767 8.89666 8.43511 9.09755 8.25389C9.58944 7.81378 10.0038 7.27939 10.3407 6.65072C10.6777 6.02206 10.8488 5.003 10.8539 3.59356L9.62372 4.82372L8.96488 4.16989L11.3334 1.80139L13.7019 4.16989L13.0481 4.82372L11.7949 3.57572C11.7898 5.14106 11.5823 6.30367 11.1726 7.06356C10.7627 7.82334 10.2849 8.45006 9.73922 8.94372C9.36866 9.28084 9.06416 9.61489 8.82572 9.94589C8.58727 10.2769 8.46805 10.8001 8.46805 11.5154V14.1987H7.53538ZM4.34622 5.47639C4.30311 5.25195 4.27105 4.96772 4.25005 4.62372C4.22916 4.27972 4.21527 3.93039 4.20838 3.57572L2.95522 4.82372L2.29822 4.16989L4.66672 1.80139L7.03522 4.16989L6.37638 4.82372L5.14105 3.59039C5.13683 3.91906 5.1455 4.22856 5.16705 4.51889C5.18861 4.80934 5.21688 5.05517 5.25188 5.25639L4.34622 5.47639ZM5.65655 8.34689C5.46122 8.12767 5.27466 7.87317 5.09688 7.58339C4.91911 7.29361 4.77016 6.9765 4.65005 6.63206L5.54555 6.40589C5.634 6.65078 5.745 6.88184 5.87855 7.09906C6.01211 7.31639 6.1605 7.50989 6.32372 7.67956L5.65655 8.34689Z" fill="white"/>
</svg>
