<svg width="16" height="16" viewBox="0 0 16 16" fill="none" xmlns="http://www.w3.org/2000/svg">
<path d="M8.00005 14.7751L3.57638 11.4539C3.43038 11.3486 3.31799 11.2158 3.23922 11.0557C3.16055 10.8955 3.12122 10.7248 3.12122 10.5436V2.93756C3.12122 2.622 3.23172 2.35373 3.45272 2.13273C3.6736 1.91184 3.94194 1.80139 4.25772 1.80139H11.7424C12.0582 1.80139 12.3265 1.91184 12.5474 2.13273C12.7684 2.35373 12.8789 2.622 12.8789 2.93756V10.5436C12.8789 10.7248 12.8396 10.8955 12.7609 11.0557C12.6821 11.2158 12.5697 11.3486 12.4237 11.4539L8.00005 14.7751ZM7.31355 9.71539L10.7685 6.26039L10.1064 5.59106L7.31355 8.38406L5.90072 6.97123L5.23155 7.63339L7.31355 9.71539Z" fill="white"/>
</svg>
