<svg width="16" height="16" viewBox="0 0 16 16" fill="none" xmlns="http://www.w3.org/2000/svg">
<path d="M5.56222 11.7257H10.4462V10.7931H5.56222V11.7257ZM5.56222 9.08589H10.4462V8.15322H5.56222V9.08589ZM4.25772 14.1987C3.9426 14.1987 3.67444 14.0881 3.45322 13.8669C3.23188 13.6456 3.12122 13.3774 3.12122 13.0624V2.93772C3.12122 2.62272 3.23188 2.35456 3.45322 2.13322C3.67444 1.912 3.94305 1.80139 4.25905 1.80139H9.50005L12.8789 5.17189V13.0609C12.8789 13.3769 12.7682 13.6456 12.5469 13.8669C12.3257 14.0881 12.0575 14.1987 11.7424 14.1987H4.25772ZM9.04038 5.63972H11.9462L9.04038 2.73406V5.63972Z" fill="white"/>
</svg>
